<svg xmlns="http://www.w3.org/2000/svg" viewBox="0 0 64 64" fill="none">
  <!-- Background circle -->
  <circle cx="32" cy="32" r="32" fill="#1e40af"/>
  
  <!-- Airplane symbol -->
  <path d="M32 16l-8 12h-8l2 4h6l-4 8-6 2 2 2 6-2 4-8h6l-2 4h8l8-12-8-12z" fill="white" opacity="0.9"/>
  
  <!-- Legal scales accent -->
  <path d="M48 44h-4v-2c0-1.1.9-2 2-2s2 .9 2 2v2z" fill="#60a5fa" opacity="0.8"/>
  <path d="M20 44h-4v-2c0-1.1.9-2 2-2s2 .9 2 2v2z" fill="#60a5fa" opacity="0.8"/>
  <line x1="16" y1="44" x2="48" y2="44" stroke="#60a5fa" stroke-width="1.5" opacity="0.8"/>
</svg>